<mxfile host="app.diagrams.net" modified="2023-06-21T16:40:24.980Z" agent="Mozilla/5.0 (Macintosh; Intel Mac OS X 10_15_7) AppleWebKit/537.36 (KHTML, like Gecko) Chrome/114.0.0.0 Safari/537.36" version="21.3.8" etag="VgaIxSzG402kBYvDrxtr" type="github">
  <diagram name="หน้า-1" id="kAMeDEt6yK3nhV0qE2oL">
    <mxGraphModel>
      <root>
        <mxCell id="0" />
        <mxCell id="1" parent="0" />
      </root>
    </mxGraphModel>
  </diagram>
</mxfile>
